<svg xmlns="http://www.w3.org/2000/svg" xmlns:xlink="http://www.w3.org/1999/xlink" width="180px" height="100px" viewBox="0 0 2160 1440">
  <g id="ToAulfcN5XWI9OmGr-0Nb">
<path style="stroke: rgb(114,114,114); stroke-width: 0; stroke-dasharray: none; stroke-linecap: butt; stroke-dashoffset: 0; stroke-linejoin: round; stroke-miterlimit: 4; fill: rgb(114,114,114); fill-rule: nonzero; opacity: 1;" vector-effect="non-scaling-stroke" transform="matrix(1 0 0 1 0 0)  translate(0, 0)" d="" stroke-linecap="round"/>
</g>
<g id="PvYKISAngFyEmBev2rjpS">
<g>
		<g id="dzPeuBX6SqmMpmis3-yr5">
<path style="stroke: rgb(193,193,193); stroke-width: 0; stroke-dasharray: none; stroke-linecap: butt; stroke-dashoffset: 0; stroke-linejoin: miter; stroke-miterlimit: 4; fill: rgb(0,0,0); fill-rule: nonzero; opacity: 1;" d="M936.97358,993.54l-55.18,-240.37l-54.84,240.37h-33.52l-49.09,-266.77h25.73l41.3,236.64l54.17,-236.64h32.84l54.17,236.64l41.3,-236.64h25.73l-49.09,266.77zM1056.06358,990.83v-179.43h23.7v179.43zM1052.68358,738.62h30.47v30.47h-30.47zM1262.83358,990.83h-23.69v-122.21c0,-13.55 -3.5,-23.53 -10.5,-29.96c-6.99,-6.43 -16.47,-9.65 -28.44,-9.65c-9.25,0 -17.1,1.47 -23.53,4.4c-6.43,2.93 -11.73,6.54 -15.91,10.83c-4.17,4.29 -7.5,8.46 -9.98,12.53v134.06h-23.7v-128.65l-2.03,-50.78h19.63l3.39,25.39c5.19,-7.9 12.69,-14.73 22.51,-20.48c9.82,-5.75 22.4,-8.63 37.75,-8.63c17.83,0 31.37,5.42 40.62,16.25c9.25,10.83 13.88,24.6 13.88,41.3zM1309.14358,990.83v-179.43h23.69v179.43zM1305.75358,738.62h30.47v30.47h-30.47zM1491.87358,990.83l-3.72,-25.05c-5.87,7.67 -13.99,14.39 -24.38,20.14c-10.38,5.75 -23.36,8.63 -38.93,8.63c-16.47,0 -29.22,-4.57 -38.25,-13.71c-9.03,-9.14 -13.55,-20.93 -13.55,-35.37v-3.39c0,-13.09 2.88,-23.31 8.64,-30.64c5.75,-7.33 13.09,-12.81 22,-16.42c8.91,-3.61 18.22,-6.09 27.93,-7.45l54.17,-8.46v-4.74c0,-15.35 -2.93,-26.97 -8.8,-34.87c-5.87,-7.9 -16.82,-11.85 -32.84,-11.85c-11.29,0 -19.92,1.98 -25.9,5.93c-5.98,3.95 -10.1,9.14 -12.36,15.57c-2.25,6.43 -3.38,13.6 -3.38,21.5h-22.69v-3.05c0,-6.77 0.9,-13.66 2.71,-20.65c1.81,-7 5.08,-13.49 9.82,-19.47c4.74,-5.98 11.34,-10.77 19.81,-14.38c8.46,-3.61 19.24,-5.42 32.33,-5.42c16.7,0 29.73,2.82 39.1,8.46c9.37,5.65 16.02,13.43 19.97,23.36c3.95,9.93 5.93,21.56 5.93,34.87v65.68l2.03,50.78zM1430.93358,973.9c11.06,0 20.26,-1.64 27.6,-4.91c7.33,-3.27 13.2,-7.16 17.6,-11.68c4.4,-4.51 7.62,-8.46 9.65,-11.84v-49.09l-52.14,8.46c-11.51,2.03 -20.53,5.93 -27.08,11.68c-6.55,5.75 -9.82,13.71 -9.82,23.87v3.04c0,7.9 2.71,14.95 8.13,21.16c5.41,6.21 14.1,9.31 26.06,9.31zM1622.81358,807.68c1.13,0 2.2,0.06 3.22,0.17c1.01,0.11 1.63,0.17 1.86,0.17v22.68h-4.74c-9.03,0 -16.64,1.41 -22.85,4.23c-6.21,2.82 -11.29,6.32 -15.24,10.5c-3.95,4.17 -7.16,8.29 -9.65,12.35v133.05h-23.69v-128.65l-2.03,-50.78h19.63l3.39,23.7c4.74,-7.45 11.28,-13.88 19.63,-19.3c8.35,-5.41 18.51,-8.12 30.47,-8.12zM1722.60358,974.58c14.67,0 25.79,-2.99 33.35,-8.97c7.56,-5.98 11.34,-13.94 11.34,-23.87c0,-12.19 -3.84,-20.37 -11.51,-24.54c-7.67,-4.18 -20.2,-7.06 -37.58,-8.64c-16.02,-1.35 -28.6,-4.12 -37.75,-8.29c-9.14,-4.17 -15.51,-9.59 -19.12,-16.25c-3.61,-6.66 -5.42,-14.39 -5.42,-23.19v-2.03c0,-15.57 5.87,-27.99 17.6,-37.24c11.74,-9.25 28.1,-13.88 49.09,-13.88c16.48,0 29.57,2.6 39.27,7.79c9.71,5.19 16.76,12.29 21.16,21.32c4.4,9.03 6.6,19.42 6.6,31.15v1.35h-23.35c0,-12.86 -3.1,-23.02 -9.31,-30.47c-6.21,-7.45 -17.66,-11.17 -34.37,-11.17c-13.54,0 -24.09,2.71 -31.65,8.13c-7.56,5.41 -11.34,13.09 -11.34,23.02c0,6.09 1.3,11.34 3.89,15.74c2.59,4.4 7.33,7.9 14.22,10.5c6.89,2.59 16.76,4.45 29.62,5.58c22.57,1.81 38.94,6.38 49.09,13.71c10.16,7.34 15.24,19.25 15.24,35.72v1.69c0,15.57 -5.98,28.27 -17.95,38.09c-11.96,9.81 -29,14.72 -51.12,14.72c-16.93,0 -30.47,-2.88 -40.62,-8.63c-10.16,-5.75 -17.44,-13.03 -21.84,-21.83c-4.4,-8.81 -6.6,-17.72 -6.6,-26.75v-1.35h23.7c0,6.54 1.3,12.75 3.89,18.62c2.6,5.87 7.23,10.66 13.88,14.38c6.66,3.73 15.86,5.59 27.59,5.59zM1829.84358,990.83v-270.83h23.7v186.19l85.31,-94.79h29.46l-61.62,68.05l61.62,111.38h-27.09l-50.78,-93.44l-36.9,40.63v52.81zM2113.13358,990.83l-3.73,-25.05c-5.87,7.67 -13.99,14.39 -24.37,20.14c-10.39,5.75 -23.37,8.63 -38.94,8.63c-16.47,0 -29.22,-4.57 -38.25,-13.71c-9.03,-9.14 -13.54,-20.93 -13.54,-35.37v-3.39c0,-13.09 2.88,-23.31 8.63,-30.64c5.75,-7.33 13.09,-12.81 22.01,-16.42c8.91,-3.61 18.22,-6.09 27.93,-7.45l54.16,-8.46v-4.74c0,-15.35 -2.93,-26.97 -8.8,-34.87c-5.87,-7.9 -16.81,-11.85 -32.84,-11.85c-11.29,0 -19.92,1.98 -25.9,5.93c-5.98,3.95 -10.1,9.14 -12.35,15.57c-2.26,6.43 -3.39,13.6 -3.39,21.5h-22.68v-3.05c0,-6.77 0.9,-13.66 2.71,-20.65c1.81,-7 5.08,-13.49 9.81,-19.47c4.74,-5.98 11.34,-10.77 19.81,-14.38c8.46,-3.61 19.24,-5.42 32.33,-5.42c16.7,0 29.73,2.82 39.1,8.46c9.37,5.65 16.03,13.43 19.98,23.36c3.95,9.93 5.92,21.56 5.92,34.87v65.68l2.03,50.78zM2052.19358,973.9c11.06,0 20.26,-1.64 27.59,-4.91c7.33,-3.27 13.2,-7.16 17.6,-11.68c4.41,-4.51 7.62,-8.46 9.65,-11.84v-49.09l-52.13,8.46c-11.51,2.03 -20.54,5.93 -27.09,11.68c-6.54,5.75 -9.81,13.71 -9.81,23.87v3.04c0,7.9 2.71,14.95 8.12,21.16c5.42,6.21 14.11,9.31 26.07,9.31z" stroke-linecap="round"/>
</g>
</g>
</g>
<g id="DR_VjGefyb2yw_if3iDsM">
<path style="stroke: rgb(193,193,193); stroke-width: 0; stroke-dasharray: none; stroke-linecap: butt; stroke-dashoffset: 0; stroke-linejoin: miter; stroke-miterlimit: 4; fill: rgb(114,114,114); fill-rule: nonzero; opacity: 1;" transform="matrix(1 0 0 1 0 0)  translate(0, 0)" d="" stroke-linecap="round"/>
</g>
<g id="JRFQnO4aVIiZJUou-AEJt">
<path style="stroke: rgb(193,193,193); stroke-width: 0; stroke-dasharray: none; stroke-linecap: butt; stroke-dashoffset: 0; stroke-linejoin: miter; stroke-miterlimit: 4; fill: rgb(193,193,193); fill-rule: nonzero; opacity: 1;" transform="matrix(1 0 0 1 0 0)  translate(0, 0)" d="" stroke-linecap="round"/>
</g>
<g id="lC4bSWiXOBn_cLjmGa6gw">
<path style="stroke: rgb(114,114,114); stroke-width: 0; stroke-dasharray: none; stroke-linecap: butt; stroke-dashoffset: 0; stroke-linejoin: round; stroke-miterlimit: 4; fill: rgb(114,114,114); fill-rule: nonzero; opacity: 1;" vector-effect="non-scaling-stroke" transform="matrix(1 0 0 1 0 0)  translate(0, 0)" d="" stroke-linecap="round"/>
</g>
<g id="OZJ0bSE-d_gNKml2gm5YL">
<g>
		<g id="lSAavzXKusvV_QcpigvAs">
<path style="stroke: rgb(193,193,193); stroke-width: 0; stroke-dasharray: none; stroke-linecap: butt; stroke-dashoffset: 0; stroke-linejoin: miter; stroke-miterlimit: 4; fill: rgb(0,0,0); fill-rule: nonzero; opacity: 1;" d="M964.56946,432.53602l-84.64,244.23h-24.24l-84.64,-244.23l1.49,64.88v179.35h-26.85v-290.84h37.66l84.65,244.6l84.64,-244.6h37.66v290.84h-26.85v-179.35zM1152.86946,676.76602l-4.1,-27.59c-6.46,8.45 -15.41,15.84 -26.84,22.18c-11.44,6.34 -25.74,9.51 -42.89,9.51c-18.15,0 -32.19,-5.03 -42.13,-15.1c-9.95,-10.07 -14.92,-23.06 -14.92,-38.97v-3.72c0,-14.42 3.17,-25.67 9.51,-33.75c6.34,-8.08 14.42,-14.11 24.24,-18.08c9.82,-3.98 20.07,-6.72 30.76,-8.21l59.66,-9.32v-5.22c0,-16.91 -3.23,-29.71 -9.69,-38.41c-6.47,-8.7 -18.52,-13.05 -36.17,-13.05c-12.43,0 -21.94,2.18 -28.53,6.53c-6.59,4.35 -11.12,10.06 -13.61,17.15c-2.49,7.09 -3.73,14.98 -3.73,23.68h-24.98v-3.36c0,-7.45 1,-15.03 2.99,-22.74c1.99,-7.71 5.59,-14.85 10.81,-21.44c5.22,-6.59 12.49,-11.87 21.81,-15.85c9.32,-3.98 21.19,-5.97 35.61,-5.97c18.39,0 32.75,3.11 43.07,9.33c10.31,6.21 17.65,14.79 22,25.72c4.35,10.94 6.52,23.74 6.52,38.41v72.34l2.24,55.93zM1085.75946,658.12602c12.18,0 22.31,-1.8 30.39,-5.41c8.07,-3.61 14.54,-7.89 19.39,-12.86c4.85,-4.97 8.39,-9.33 10.62,-13.06v-54.06l-57.42,9.32c-12.68,2.23 -22.62,6.52 -29.83,12.86c-7.21,6.34 -10.81,15.1 -10.81,26.29v3.36c0,8.7 2.98,16.47 8.95,23.3c5.96,6.84 15.53,10.26 28.71,10.26zM1286.35946,475.03602c1.25,0 2.43,0.06 3.55,0.19c1.12,0.13 1.8,0.19 2.05,0.19v24.98h-5.22c-9.95,0 -18.34,1.55 -25.17,4.66c-6.84,3.11 -12.43,6.96 -16.78,11.56c-4.35,4.6 -7.9,9.14 -10.63,13.61v146.54h-26.1v-141.69l-2.24,-55.94h21.63l3.73,26.11c5.22,-8.21 12.43,-15.29 21.63,-21.26c9.19,-5.97 20.38,-8.95 33.55,-8.95zM1368.39946,479.13602h63.01v23.5h-63.01v115.96c0,15.66 3.23,26.04 9.69,31.14c6.47,5.09 15.91,7.64 28.34,7.64c4.23,0 8.45,-0.37 12.68,-1.12c4.23,-0.75 7.09,-1.49 8.58,-2.24v22.75c-1.49,0.5 -4.48,1.31 -8.95,2.42c-4.48,1.12 -10.7,1.68 -18.65,1.68c-16.65,0 -30.45,-4.47 -41.39,-13.42c-10.93,-8.95 -16.4,-24.12 -16.4,-45.49v-119.32h-31.33v-23.5h31.33v-55.93h26.1zM1531.34946,640.59602l56.67,-161.46h27.97l-70.85,190.17l-27.96,82.04h-30.21l30.95,-82.04l-70.84,-190.17h27.96zM1785.27946,676.76602h-26.11v-134.61c0,-14.91 -3.85,-25.91 -11.56,-33c-7.7,-7.09 -18.14,-10.63 -31.32,-10.63c-10.19,0 -18.82,1.62 -25.91,4.85c-7.09,3.23 -12.93,7.21 -17.53,11.93c-4.6,4.73 -8.27,9.33 -11,13.8v147.66h-26.1v-141.69l-2.24,-55.94h21.63l3.73,27.97c5.72,-8.7 13.99,-16.22 24.8,-22.56c10.81,-6.34 24.67,-9.51 41.57,-9.51c19.64,0 34.56,5.97 44.75,17.9c10.19,11.93 15.29,27.1 15.29,45.49zM1945.23946,676.76602l-4.1,-27.59c-6.47,8.45 -15.42,15.84 -26.85,22.18c-11.43,6.34 -25.73,9.51 -42.88,9.51c-18.15,0 -32.19,-5.03 -42.14,-15.1c-9.94,-10.07 -14.91,-23.06 -14.91,-38.97v-3.72c0,-14.42 3.17,-25.67 9.51,-33.75c6.34,-8.08 14.42,-14.11 24.24,-18.08c9.81,-3.98 20.07,-6.72 30.76,-8.21l59.66,-9.32v-5.22c0,-16.91 -3.23,-29.71 -9.7,-38.41c-6.46,-8.7 -18.52,-13.05 -36.17,-13.05c-12.43,0 -21.93,2.18 -28.52,6.53c-6.59,4.35 -11.12,10.06 -13.61,17.15c-2.49,7.09 -3.73,14.98 -3.73,23.68h-24.98v-3.36c0,-7.45 0.99,-15.03 2.98,-22.74c1.99,-7.71 5.59,-14.85 10.81,-21.44c5.22,-6.59 12.49,-11.87 21.82,-15.85c9.32,-3.98 21.19,-5.97 35.61,-5.97c18.39,0 32.75,3.11 43.06,9.33c10.32,6.21 17.65,14.79 22,25.72c4.35,10.94 6.53,23.74 6.53,38.41v72.34l2.24,55.93zM1878.11946,658.12602c12.18,0 22.31,-1.8 30.39,-5.41c8.08,-3.61 14.54,-7.89 19.39,-12.86c4.85,-4.97 8.39,-9.33 10.63,-13.06v-54.06l-57.42,9.32c-12.68,2.23 -22.63,6.52 -29.84,12.86c-7.21,6.34 -10.81,15.1 -10.81,26.29v3.36c0,8.7 2.98,16.47 8.95,23.3c5.97,6.84 15.54,10.26 28.71,10.26z" stroke-linecap="round"/>
</g>
</g>
</g>
<g id="BVMhKz-I_qxEXRnbPtYgk">
<path style="stroke: rgb(193,193,193); stroke-width: 0; stroke-dasharray: none; stroke-linecap: butt; stroke-dashoffset: 0; stroke-linejoin: miter; stroke-miterlimit: 4; fill: rgb(114,114,114); fill-rule: nonzero; opacity: 1;" transform="matrix(1 0 0 1 0 0)  translate(0, 0)" d="" stroke-linecap="round"/>
</g>
<g id="fkouF-LKlSKZzkhqkEiLv">
<path style="stroke: rgb(193,193,193); stroke-width: 0; stroke-dasharray: none; stroke-linecap: butt; stroke-dashoffset: 0; stroke-linejoin: miter; stroke-miterlimit: 4; fill: rgb(193,193,193); fill-rule: nonzero; opacity: 1;" transform="matrix(1 0 0 1 0 0)  translate(0, 0)" d="" stroke-linecap="round"/>
</g>
<g id="ZJL00-aZ_xUH2nXxXTpLL">
<g style="">
		<g id="kUn71KSI60DRbfi2oPIhl">
<path style="stroke: rgb(0,0,0); stroke-width: 0; stroke-dasharray: none; stroke-linecap: butt; stroke-dashoffset: 0; stroke-linejoin: miter; stroke-miterlimit: 4; fill: rgb(0,0,0); fill-rule: nonzero; opacity: 1;" transform="matrix(0.67675 0 0 0.67675 392.262569 704.017567) matrix(1 0 0 1 -156.25166 -279.366735)  translate(-447.99013, -318.14845)" d="M 131.00 598.23 C 152.09 596.93 166.28 503.57 173.57 318.15 C 175.40 273.36 176.31 234.03 176.31 200.18 C 176.31 93.41 167.59 39.38 150.14 38.07 L 286.86 38.07 L 458.73 489.64 L 625.14 38.07 L 749.75 38.07 C 731.26 39.64 722.01 101.62 722.01 224.01 C 722.01 252.14 723.51 321.08 726.50 430.85 C 729.50 540.62 742.33 596.41 764.98 598.23 L 614.59 598.23 C 634.90 597.19 645.06 532.22 645.06 403.31 C 645.06 317.11 640.50 202.40 631.39 59.17 L 431.00 598.23 L 403.65 598.23 L 200.92 70.11 C 192.85 221.15 188.81 339.77 188.81 425.96 C 188.81 540.29 195.84 597.71 209.90 598.23 z" stroke-linecap="round"/>
</g>
		<g id="Layer_1-2">
<rect style="stroke: rgb(0,0,0); stroke-width: 0; stroke-dasharray: none; stroke-linecap: butt; stroke-dashoffset: 0; stroke-linejoin: miter; stroke-miterlimit: 4; fill: rgb(0,0,0); fill-rule: nonzero; opacity: 1;" x="-216.9" y="-5.875" rx="0" ry="0" width="433.8" height="11.75" transform="matrix(0.67675 0 0 0.67675 392.262569 704.017567) matrix(0.851064 0 0 0.851064 290.627263 0.713262)"/>
</g>
		<g id="Layer_1-2">
<rect style="stroke: rgb(0,0,0); stroke-width: 0; stroke-dasharray: none; stroke-linecap: butt; stroke-dashoffset: 0; stroke-linejoin: miter; stroke-miterlimit: 4; fill: rgb(0,0,0); fill-rule: nonzero; opacity: 1;" x="-216.9" y="-5.875" rx="0" ry="0" width="433.8" height="11.75" transform="matrix(0.67675 0 0 0.67675 392.262569 704.017567) matrix(0.851064 0 0 0.851064 -294.329544 -0.282747)"/>
</g>
		<g id="Layer_1-2">
<rect style="stroke: rgb(0,0,0); stroke-width: 0; stroke-dasharray: none; stroke-linecap: butt; stroke-dashoffset: 0; stroke-linejoin: miter; stroke-miterlimit: 4; fill: rgb(0,0,0); fill-rule: nonzero; opacity: 1;" x="-216.9" y="-5.875" rx="0" ry="0" width="433.8" height="11.75" transform="matrix(0.67675 0 0 0.67675 392.262569 704.017567) matrix(0.851064 0 0 0.851064 -98.5643 -0.282747)"/>
</g>
		<g id="dO7NdkYfVW7PGD9ypq59E">
<path style="stroke: rgb(0,0,0); stroke-width: 0; stroke-dasharray: none; stroke-linecap: butt; stroke-dashoffset: 0; stroke-linejoin: miter; stroke-miterlimit: 4; fill: rgb(0,0,0); fill-rule: nonzero; opacity: 1;" transform="matrix(0.67675 0 0 0.67675 392.262569 704.017567) matrix(1 0 0 1 106.03148 275.793265)  translate(-710.27327, -873.30845)" d="M 568.67 1153.39 C 434.04 781.26 357.74 594.54 339.77 593.23 L 494.06 593.23 C 489.89 593.49 487.81 598.70 487.81 608.86 C 487.81 653.13 528.70 792.72 610.47 1027.61 L 705.39 783.47 C 661.12 658.47 628.31 595.06 606.95 593.23 L 761.64 593.23 C 757.99 593.49 756.17 597.79 756.17 606.12 C 756.17 648.05 798.49 789.72 883.13 1031.12 L 1044.85 598.70 C 1044.85 595.58 1041.20 593.76 1033.91 593.23 L 1080.78 593.23 C 1069.33 594.28 992.77 781.00 851.10 1153.39 L 840.55 1153.39 L 712.81 801.05 L 578.83 1153.39 z" stroke-linecap="round"/>
</g>
		<g id="Layer_1-2">
<path style="stroke: rgb(0,0,0); stroke-width: 0; stroke-dasharray: none; stroke-linecap: butt; stroke-dashoffset: 0; stroke-linejoin: miter; stroke-miterlimit: 4; fill: rgb(0,0,0); fill-rule: nonzero; opacity: 1;" transform="matrix(0.67675 0 0 0.67675 392.262569 704.017567) matrix(1 0 0 1 -3.469355 -555.307775)  translate(-600.772435, -42.20741)" d="M 122.08 46.35 L 122.08 38.07 L 1079.46 38.07 L 1079.46 46.35 z" stroke-linecap="round"/>
</g>
		<g id="Layer_1-2">
<path style="stroke: rgb(0,0,0); stroke-width: 0; stroke-dasharray: none; stroke-linecap: butt; stroke-dashoffset: 0; stroke-linejoin: miter; stroke-miterlimit: 4; fill: rgb(0,0,0); fill-rule: nonzero; opacity: 1;" transform="matrix(0.67675 0 0 0.67675 392.262569 704.017567) matrix(1 0 0 1 -0.565065 555.873265)  translate(-603.676725, -1153.38845)" d="M 122.08 1157.53 L 122.08 1149.25 L 1085.27 1149.25 L 1085.27 1157.53 z" stroke-linecap="round"/>
</g>
		<g id="Layer_1-2">
<path style="stroke: rgb(0,0,0); stroke-width: 0; stroke-dasharray: none; stroke-linecap: butt; stroke-dashoffset: 0; stroke-linejoin: miter; stroke-miterlimit: 4; fill: rgb(0,0,0); fill-rule: nonzero; opacity: 1;" transform="matrix(0.67675 0 0 0.67675 392.262569 704.017567) matrix(1 0 0 1 -482.161885 0.282745)  translate(-122.079905, -597.79793)" d="M 117.76 1157.53 L 117.76 38.07 L 126.40 38.07 L 126.40 1157.53 z" stroke-linecap="round"/>
</g>
		<g id="Layer_1-2">
<path style="stroke: rgb(0,0,0); stroke-width: 0; stroke-dasharray: none; stroke-linecap: butt; stroke-dashoffset: 0; stroke-linejoin: miter; stroke-miterlimit: 4; fill: rgb(0,0,0); fill-rule: nonzero; opacity: 1;" transform="matrix(0.67675 0 0 0.67675 392.262569 704.017567) matrix(1 0 0 1 480.850075 -0.282745)  translate(-1085.091865, -597.23244)" d="M 1079.46 1156.96 L 1079.46 37.50 L 1090.72 37.50 L 1090.72 1156.96 z" stroke-linecap="round"/>
</g>
</g>
</g>

  </svg>